<svg width="24" height="24" viewBox="0 0 24 24" fill="none" xmlns="http://www.w3.org/2000/svg">
<mask id="mask0_4_82" style="mask-type:alpha" maskUnits="userSpaceOnUse" x="0" y="0" width="24" height="24">
<rect width="24" height="24" fill="#D9D9D9"/>
</mask>
<g mask="url(#mask0_4_82)">
<path d="M12.975 21.9501V19.9501C13.675 19.85 14.354 19.6584 15.012 19.375C15.6707 19.0917 16.2917 18.7334 16.875 18.3L18.325 19.75C17.5417 20.3667 16.7 20.8627 15.8 21.2381C14.9 21.6127 13.9584 21.85 12.975 21.9501ZM19.725 18.3L18.325 16.9C18.7584 16.35 19.1084 15.7457 19.375 15.087C19.6417 14.429 19.825 13.7334 19.925 13H21.975C21.8417 14.0334 21.5877 14.9957 21.213 15.887C20.8377 16.779 20.3417 17.5834 19.725 18.3ZM19.925 11C19.825 10.25 19.6417 9.54572 19.375 8.88705C19.1084 8.22905 18.7584 7.63338 18.325 7.10005L19.725 5.70005C20.3584 6.43338 20.871 7.25005 21.263 8.15005C21.6544 9.05005 21.8917 10 21.975 11H19.925ZM10.975 21.9501C8.42502 21.6501 6.29602 20.5544 4.58802 18.663C2.87936 16.771 2.02502 14.55 2.02502 12C2.02502 9.41672 2.87936 7.18338 4.58802 5.30005C6.29602 3.41672 8.42502 2.33338 10.975 2.05005V4.05005C8.97503 4.33338 7.31669 5.22505 6.00002 6.72505C4.68336 8.22505 4.02502 9.98338 4.02502 12C4.02502 14 4.68336 15.75 6.00002 17.25C7.31669 18.75 8.97503 19.6501 10.975 19.9501V21.9501ZM16.925 5.70005C16.325 5.25005 15.6917 4.88338 15.025 4.60005C14.3584 4.31672 13.675 4.13338 12.975 4.05005V2.05005C13.9584 2.13338 14.9 2.36238 15.8 2.73705C16.7 3.11238 17.5417 3.61672 18.325 4.25005L16.925 5.70005ZM12 17C10.65 15.85 9.64602 14.7874 8.98802 13.812C8.32936 12.8374 8.00002 11.9334 8.00002 11.1C8.00002 9.85005 8.40436 8.85438 9.21302 8.11305C10.021 7.37105 10.95 7.00005 12 7.00005C13.05 7.00005 13.9794 7.37105 14.788 8.11305C15.596 8.85438 16 9.85005 16 11.1C16 11.9334 15.6707 12.8374 15.012 13.812C14.354 14.7874 13.35 15.85 12 17ZM12 12C12.3 12 12.5544 11.896 12.763 11.688C12.971 11.4794 13.075 11.225 13.075 10.925C13.075 10.6417 12.971 10.3917 12.763 10.175C12.5544 9.95838 12.3 9.85005 12 9.85005C11.7 9.85005 11.446 9.95838 11.238 10.175C11.0294 10.3917 10.925 10.6417 10.925 10.925C10.925 11.225 11.0294 11.4794 11.238 11.688C11.446 11.896 11.7 12 12 12Z" fill="#1C1B1F"/>
</g>
</svg>
