<svg width="36" height="36" viewBox="0 0 36 36" fill="none" xmlns="http://www.w3.org/2000/svg">
<mask id="mask0_54_7" style="mask-type:alpha" maskUnits="userSpaceOnUse" x="0" y="0" width="36" height="36">
<rect width="36" height="36" fill="#D9D9D9"/>
</mask>
<g mask="url(#mask0_54_7)">
<path d="M24.15 19.95L21.975 17.775C22.2 16.6 21.8625 15.5 20.9625 14.475C20.0625 13.45 18.9 13.05 17.475 13.275L15.3 11.1C15.725 10.9 16.156 10.75 16.593 10.65C17.031 10.55 17.5 10.5 18 10.5C19.875 10.5 21.469 11.156 22.782 12.468C24.094 13.781 24.75 15.375 24.75 17.25C24.75 17.75 24.7 18.219 24.6 18.657C24.5 19.094 24.35 19.525 24.15 19.95ZM28.95 24.675L26.775 22.575C27.725 21.85 28.569 21.056 29.307 20.193C30.044 19.331 30.675 18.35 31.2 17.25C29.95 14.725 28.156 12.7185 25.818 11.2305C23.481 9.74351 20.875 9 18 9C17.275 9 16.5625 9.05 15.8625 9.15C15.1625 9.25 14.475 9.4 13.8 9.6L11.475 7.275C12.5 6.85 13.55 6.531 14.625 6.318C15.7 6.106 16.825 6 18 6C21.775 6 25.1375 7.0435 28.0875 9.1305C31.0375 11.2185 33.175 13.925 34.5 17.25C33.925 18.725 33.169 20.094 32.232 21.357C31.294 22.619 30.2 23.725 28.95 24.675ZM29.7 33.9L23.4 27.675C22.525 27.95 21.644 28.1565 20.757 28.2945C19.869 28.4315 18.95 28.5 18 28.5C14.225 28.5 10.8625 27.4565 7.9125 25.3695C4.9625 23.2815 2.825 20.575 1.5 17.25C2.025 15.925 2.6875 14.6935 3.4875 13.5555C4.2875 12.4185 5.2 11.4 6.225 10.5L2.1 6.3L4.2 4.2L31.8 31.8L29.7 33.9ZM8.325 12.6C7.6 13.25 6.9375 13.9625 6.3375 14.7375C5.7375 15.5125 5.225 16.35 4.8 17.25C6.05 19.775 7.8435 21.781 10.1805 23.268C12.5185 24.756 15.125 25.5 18 25.5C18.5 25.5 18.9875 25.469 19.4625 25.407C19.9375 25.344 20.425 25.275 20.925 25.2L19.575 23.775C19.3 23.85 19.0375 23.906 18.7875 23.943C18.5375 23.981 18.275 24 18 24C16.125 24 14.531 23.344 13.218 22.032C11.906 20.719 11.25 19.125 11.25 17.25C11.25 16.975 11.2685 16.7125 11.3055 16.4625C11.3435 16.2125 11.4 15.95 11.475 15.675L8.325 12.6Z" fill="#1C1B1F"/>
</g>
</svg>
