<svg width="36" height="36" viewBox="0 0 36 36" fill="none" xmlns="http://www.w3.org/2000/svg">
<mask id="mask0_3_23" style="mask-type:alpha" maskUnits="userSpaceOnUse" x="0" y="0" width="36" height="36">
<rect width="36" height="36" fill="#D9D9D9"/>
</mask>
<g mask="url(#mask0_3_23)">
<path d="M18 24C19.875 24 21.469 23.344 22.782 22.032C24.094 20.719 24.75 19.125 24.75 17.25C24.75 15.375 24.094 13.781 22.782 12.468C21.469 11.156 19.875 10.5 18 10.5C16.125 10.5 14.531 11.156 13.218 12.468C11.906 13.781 11.25 15.375 11.25 17.25C11.25 19.125 11.906 20.719 13.218 22.032C14.531 23.344 16.125 24 18 24ZM18 21.3C16.875 21.3 15.919 20.906 15.132 20.118C14.344 19.331 13.95 18.375 13.95 17.25C13.95 16.125 14.344 15.1685 15.132 14.3805C15.919 13.5935 16.875 13.2 18 13.2C19.125 13.2 20.0815 13.5935 20.8695 14.3805C21.6565 15.1685 22.05 16.125 22.05 17.25C22.05 18.375 21.6565 19.331 20.8695 20.118C20.0815 20.906 19.125 21.3 18 21.3ZM18 28.5C14.35 28.5 11.025 27.481 8.025 25.443C5.025 23.406 2.85 20.675 1.5 17.25C2.85 13.825 5.025 11.0935 8.025 9.0555C11.025 7.0185 14.35 6 18 6C21.65 6 24.975 7.0185 27.975 9.0555C30.975 11.0935 33.15 13.825 34.5 17.25C33.15 20.675 30.975 23.406 27.975 25.443C24.975 27.481 21.65 28.5 18 28.5ZM18 25.5C20.825 25.5 23.419 24.756 25.782 23.268C28.144 21.781 29.95 19.775 31.2 17.25C29.95 14.725 28.144 12.7185 25.782 11.2305C23.419 9.7435 20.825 9 18 9C15.175 9 12.581 9.7435 10.218 11.2305C7.856 12.7185 6.05 14.725 4.8 17.25C6.05 19.775 7.856 21.781 10.218 23.268C12.581 24.756 15.175 25.5 18 25.5Z" fill="#1C1B1F"/>
</g>
</svg>
