<svg width="20" height="20" viewBox="0 0 20 20" fill="none" xmlns="http://www.w3.org/2000/svg">
<mask id="mask0_39_38" style="mask-type:alpha" maskUnits="userSpaceOnUse" x="0" y="0" width="20" height="20">
<rect width="20" height="20" fill="#D9D9D9"/>
</mask>
<g mask="url(#mask0_39_38)">
<path d="M10 10C9.08337 10 8.29865 9.67365 7.64587 9.02087C6.9931 8.3681 6.66671 7.58337 6.66671 6.66671C6.66671 5.75004 6.9931 4.96532 7.64587 4.31254C8.29865 3.65976 9.08337 3.33337 10 3.33337C10.9167 3.33337 11.7014 3.65976 12.3542 4.31254C13.007 4.96532 13.3334 5.75004 13.3334 6.66671C13.3334 7.58337 13.007 8.3681 12.3542 9.02087C11.7014 9.67365 10.9167 10 10 10ZM3.33337 16.6667V14.3334C3.33337 13.8612 3.45504 13.427 3.69837 13.0309C3.94115 12.6353 4.26393 12.3334 4.66671 12.125C5.52782 11.6945 6.40282 11.3714 7.29171 11.1559C8.1806 10.9409 9.08337 10.8334 10 10.8334C10.9167 10.8334 11.8195 10.9409 12.7084 11.1559C13.5973 11.3714 14.4723 11.6945 15.3334 12.125C15.7362 12.3334 16.0589 12.6353 16.3017 13.0309C16.545 13.427 16.6667 13.8612 16.6667 14.3334V16.6667H3.33337ZM5.00004 15H15V14.3334C15 14.1806 14.962 14.0417 14.8859 13.9167C14.8092 13.7917 14.7084 13.6945 14.5834 13.625C13.8334 13.25 13.0764 12.9687 12.3125 12.7809C11.5487 12.5937 10.7778 12.5 10 12.5C9.22226 12.5 8.45143 12.5937 7.68754 12.7809C6.92365 12.9687 6.16671 13.25 5.41671 13.625C5.29171 13.6945 5.19115 13.7917 5.11504 13.9167C5.03837 14.0417 5.00004 14.1806 5.00004 14.3334V15ZM10 8.33337C10.4584 8.33337 10.8509 8.17004 11.1775 7.84337C11.5037 7.51726 11.6667 7.12504 11.6667 6.66671C11.6667 6.20837 11.5037 5.81615 11.1775 5.49004C10.8509 5.16337 10.4584 5.00004 10 5.00004C9.54171 5.00004 9.14949 5.16337 8.82337 5.49004C8.49671 5.81615 8.33337 6.20837 8.33337 6.66671C8.33337 7.12504 8.49671 7.51726 8.82337 7.84337C9.14949 8.17004 9.54171 8.33337 10 8.33337Z" fill="white"/>
</g>
</svg>
