<svg width="24" height="24" viewBox="0 0 24 24" fill="none" xmlns="http://www.w3.org/2000/svg">
<mask id="mask0_42_73" style="mask-type:alpha" maskUnits="userSpaceOnUse" x="0" y="0" width="24" height="24">
<rect width="24" height="24" fill="#D9D9D9"/>
</mask>
<g mask="url(#mask0_42_73)">
<path d="M6 22V17.7C5.05 16.8333 4.31267 15.8207 3.788 14.662C3.26267 13.504 3 12.2833 3 11C3 8.5 3.875 6.375 5.625 4.625C7.375 2.875 9.5 2 12 2C14.0833 2 15.9293 2.61267 17.538 3.838C19.146 5.06267 20.1917 6.65833 20.675 8.625L21.975 13.75C22.0583 14.0667 22 14.3543 21.8 14.613C21.6 14.871 21.3333 15 21 15H19V18C19 18.55 18.8043 19.021 18.413 19.413C18.021 19.8043 17.55 20 17 20H15V22H13V18H17V13H19.7L18.75 9.125C18.3667 7.60833 17.55 6.375 16.3 5.425C15.05 4.475 13.6167 4 12 4C10.0667 4 8.41667 4.675 7.05 6.025C5.68333 7.375 5 9.01667 5 10.95C5 11.95 5.20433 12.9 5.613 13.8C6.021 14.7 6.6 15.5 7.35 16.2L8 16.8V22H6ZM12 16C12.2833 16 12.521 15.904 12.713 15.712C12.9043 15.5207 13 15.2833 13 15C13 14.7167 12.9043 14.479 12.713 14.287C12.521 14.0957 12.2833 14 12 14C11.7167 14 11.4793 14.0957 11.288 14.287C11.096 14.479 11 14.7167 11 15C11 15.2833 11.096 15.5207 11.288 15.712C11.4793 15.904 11.7167 16 12 16ZM11.25 12.8H12.775C12.775 12.3833 12.8293 12.0457 12.938 11.787C13.046 11.529 13.2667 11.2167 13.6 10.85C13.9 10.5167 14.1917 10.179 14.475 9.837C14.7583 9.49567 14.9 9.05 14.9 8.5C14.9 7.8 14.6293 7.20833 14.088 6.725C13.546 6.24167 12.875 6 12.075 6C11.4083 6 10.8043 6.19167 10.263 6.575C9.721 6.95833 9.34167 7.45833 9.125 8.075L10.5 8.65C10.6167 8.28333 10.821 7.98767 11.113 7.763C11.4043 7.53767 11.725 7.425 12.075 7.425C12.4417 7.425 12.746 7.525 12.988 7.725C13.2293 7.925 13.35 8.18333 13.35 8.5C13.35 8.85 13.246 9.16267 13.038 9.438C12.8293 9.71267 12.5833 9.99167 12.3 10.275C11.9667 10.625 11.7083 10.975 11.525 11.325C11.3417 11.675 11.25 12.1667 11.25 12.8Z" fill="#1C1B1F"/>
</g>
</svg>
