<svg width="23" height="20" viewBox="0 0 23 20" fill="none" xmlns="http://www.w3.org/2000/svg">
<path d="M17.525 7L16.425 4.6L14.025 3.5L16.425 2.4L17.525 0L18.625 2.4L21.025 3.5L18.625 4.6L17.525 7ZM19.525 14L18.725 12.3L17.025 11.5L18.725 10.7L19.525 9L20.325 10.7L22.025 11.5L20.325 12.3L19.525 14ZM6.52498 20L6.22498 17.65C6.09164 17.6 5.96264 17.5333 5.83798 17.45C5.71264 17.3667 5.60831 17.2833 5.52498 17.2L3.32498 18.15L0.849976 13.8L2.72498 12.4V11.6L0.849976 10.2L3.32498 5.85L5.52498 6.8C5.60831 6.71667 5.71264 6.63333 5.83798 6.55C5.96264 6.46667 6.09164 6.4 6.22498 6.35L6.52498 4H11.525L11.825 6.35C11.9583 6.4 12.0876 6.46667 12.213 6.55C12.3376 6.63333 12.4416 6.71667 12.525 6.8L14.725 5.85L17.2 10.2L15.325 11.6V12.4L17.2 13.8L14.725 18.15L12.525 17.2C12.4416 17.2833 12.3376 17.3667 12.213 17.45C12.0876 17.5333 11.9583 17.6 11.825 17.65L11.525 20H6.52498ZM9.02497 15C9.85831 15 10.5666 14.7083 11.15 14.125C11.7333 13.5417 12.025 12.8333 12.025 12C12.025 11.1667 11.7333 10.4583 11.15 9.875C10.5666 9.29167 9.85831 9 9.02497 9C8.19164 9 7.48331 9.29167 6.89998 9.875C6.31664 10.4583 6.02498 11.1667 6.02498 12C6.02498 12.8333 6.31664 13.5417 6.89998 14.125C7.48331 14.7083 8.19164 15 9.02497 15ZM9.02497 13C8.74164 13 8.50398 12.904 8.31198 12.712C8.12064 12.5207 8.02498 12.2833 8.02498 12C8.02498 11.7167 8.12064 11.479 8.31198 11.287C8.50398 11.0957 8.74164 11 9.02497 11C9.30831 11 9.54597 11.0957 9.73798 11.287C9.92931 11.479 10.025 11.7167 10.025 12C10.025 12.2833 9.92931 12.5207 9.73798 12.712C9.54597 12.904 9.30831 13 9.02497 13ZM8.27498 18H9.77497L9.97498 16.2C10.4583 16.0667 10.871 15.896 11.213 15.688C11.5543 15.4793 11.8916 15.2 12.225 14.85L13.875 15.6L14.575 14.35L13.125 13.25C13.2583 12.8667 13.325 12.45 13.325 12C13.325 11.55 13.2583 11.1333 13.125 10.75L14.575 9.65L13.875 8.4L12.225 9.15C11.8916 8.8 11.5543 8.52067 11.213 8.312C10.871 8.104 10.4583 7.93333 9.97498 7.8L9.77497 6H8.27498L8.07498 7.8C7.59164 7.93333 7.17931 8.104 6.83798 8.312C6.49598 8.52067 6.15831 8.8 5.82498 9.15L4.17498 8.4L3.47498 9.65L4.92498 10.75C4.79164 11.1333 4.72098 11.55 4.71298 12C4.70431 12.45 4.77498 12.8667 4.92498 13.25L3.47498 14.35L4.17498 15.6L5.82498 14.85C6.15831 15.2 6.49598 15.4793 6.83798 15.688C7.17931 15.896 7.59164 16.0667 8.07498 16.2L8.27498 18Z" fill="#1C1B1F"/>
</svg>
